<svg width="156" height="56" viewBox="0 0 156 56" fill="none" xmlns="http://www.w3.org/2000/svg">
<path d="M59.241 8.05885H54.4892V35.2446H59.241V8.05885Z" fill="#FF6B00"/>
<path d="M44.3945 8.05885V26.9894L31.356 8.05885H25.9007V35.2462H31.2827V16.7372L44.2089 35.2462H49.7765V8.05885H44.3945Z" fill="#FF6B00"/>
<path d="M19.0289 20.9743C19.6123 20.6106 20.1068 20.1246 20.5093 19.5163C21.1723 18.5122 21.5046 17.249 21.5046 15.7299C21.5046 14.5375 21.2363 13.3563 20.7012 12.188C20.1646 11.0198 19.319 10.0494 18.1631 9.27701C17.0056 8.5046 15.4908 8.11839 13.6157 8.11839H0V35.2446H14.7467C16.536 35.2446 18.0211 34.8954 19.202 34.1986C20.383 33.5018 21.2628 32.5379 21.8416 31.3069C22.4203 30.0759 22.7089 28.6501 22.7089 27.0313C22.7089 25.5234 22.2986 24.1621 21.4765 22.9439C20.879 22.0572 20.0616 21.4007 19.0289 20.9743ZM4.75176 12.9041H13.5408C14.4908 12.9041 15.2147 13.1874 15.7139 13.7522C16.2131 14.317 16.4627 15.0138 16.4627 15.8425C16.4627 16.5087 16.3348 17.051 16.0789 17.4726C15.8231 17.8943 15.4768 18.2048 15.0384 18.4044C14.6 18.6055 14.1008 18.7053 13.5408 18.7053H4.75176V12.9025V12.9041ZM17.2583 28.737C16.9603 29.2713 16.5485 29.6848 16.0259 29.9809C15.5017 30.2754 14.9058 30.4234 14.2366 30.4234H4.75176V23.491H14.235C15.0025 23.491 15.6437 23.6391 16.1616 23.9336C16.6795 24.228 17.0648 24.6271 17.3207 25.1292C17.5765 25.6313 17.7044 26.2025 17.7044 26.843C17.7044 27.572 17.5547 28.2028 17.2567 28.737H17.2583Z" fill="#FF6B00"/>
<path d="M156 12.6434V0H143.743V0.115862C150.072 0.941379 155.087 6.11494 155.888 12.6434H156Z" fill="#FF8155"/>
<path d="M151.889 4.24023L156 0H143.743V0.115862C146.908 0.527816 149.744 2.02759 151.889 4.24023Z" fill="#FF6B00"/>
<path d="M127.371 23.5216C127.149 24.397 126.499 27.4239 123.421 29.7347C120.697 31.78 117.975 32.2837 114.725 31.2796C112.233 30.5104 110.412 28.8175 109.952 27.0281H124.302C124.44 26.275 124.7 24.6996 124.443 22.8892C123.823 18.5219 119.916 15.3517 115.154 15.3517C113.687 15.3517 112.275 15.6816 110.96 16.3317C107.83 18.0745 105.88 21.5664 105.88 25.4414C105.88 29.5481 108.727 35.7225 117.513 35.7225C120.675 35.7225 123.585 34.7104 125.925 33.0384C126.734 32.4607 128.193 30.9207 128.488 30.6069C130.193 33.666 133.389 35.7274 137.057 35.7274C138.74 35.7274 140.325 35.2913 141.713 34.5253V29.466C140.611 30.8563 138.934 31.743 137.057 31.743C133.734 31.743 131.042 28.9655 131.042 25.5379C131.042 22.1104 133.734 19.3329 137.057 19.3329C138.934 19.3329 140.611 20.2196 141.713 21.6099V16.5506C140.327 15.7846 138.742 15.3485 137.057 15.3485C132.271 15.3485 128.28 18.8598 127.372 23.5216H127.371ZM115.452 19.2959C119.961 19.2959 120.928 22.6929 120.997 23.38H110.128C110.267 22.5835 111.39 19.2959 115.451 19.2959H115.452Z" fill="#054B4C"/>
<path d="M104.05 15.3406C103.475 15.3824 102.916 15.4854 102.376 15.6495C101.835 15.8137 101.336 16.0406 100.879 16.3318C100.311 16.6762 99.829 17.1123 99.4296 17.6321V15.8314H95.6123V35.2463H99.4296V24.4599L99.4327 24.4904C99.4327 23.739 99.5326 23.0631 99.7323 22.4629C99.9319 21.8626 100.225 21.3413 100.614 20.8987C101.001 20.4562 101.478 20.1022 102.041 19.835C102.604 19.5567 103.236 19.3893 103.935 19.3346C104.634 19.2799 105.248 19.3378 105.776 19.5068V15.384C105.2 15.3116 104.624 15.2955 104.049 15.339L104.05 15.3406Z" fill="#054B4C"/>
<path d="M91.9916 15.8312H88.1696V35.2462H91.9916V15.8312Z" fill="#054B4C"/>
<path d="M80.7253 17.7462C79.0249 16.2529 76.8284 15.3533 74.4291 15.3533C69.03 15.3533 64.651 19.9138 64.651 25.5396C64.651 31.1653 69.0284 35.7258 74.4291 35.7258C76.8284 35.7258 79.0233 34.8262 80.7253 33.3329V35.2478H84.5473V8.05886H80.7253V17.7462ZM74.8207 31.7816C71.5587 31.7816 68.9145 28.9864 68.9145 25.5379C68.9145 22.0894 71.5587 19.2943 74.8207 19.2943C78.0826 19.2943 80.7253 22.0894 80.7268 25.5363C80.7268 28.9848 78.0826 31.78 74.8207 31.78V31.7816Z" fill="#054B4C"/>
<path d="M156 19.7143V15.8313H150.654V12.0078C150.654 9.82737 148.941 8.05886 146.826 8.05886V15.8313H142.712C142.712 17.9763 144.397 19.7143 146.476 19.7143H146.826V28.5874C146.826 31.4823 148.496 33.9733 150.896 35.095C151.766 35.5021 152.732 35.7306 153.749 35.7306H155.998V31.7768H154.117C152.651 31.7768 151.401 30.837 150.894 29.5094C150.74 29.1039 150.652 28.6646 150.652 28.2028V19.7143H156Z" fill="#054B4C"/>
<path d="M128.393 52.6236C127.235 52.6236 126.316 52.2529 125.637 51.5114C124.958 50.7699 124.619 49.7348 124.619 48.4063C124.619 47.0777 124.958 46.0427 125.637 45.3012C126.316 44.5597 127.235 44.1889 128.393 44.1889C129.331 44.1889 130.09 44.4309 130.669 44.915C131.258 45.399 131.668 46.0478 131.897 46.8614H130.145C129.766 46.1508 129.182 45.7955 128.393 45.7955C127.784 45.7955 127.29 46.0221 126.91 46.4752C126.531 46.9284 126.341 47.5721 126.341 48.4063C126.341 49.2405 126.531 49.8842 126.91 50.3373C127.29 50.7905 127.784 51.017 128.393 51.017C129.182 51.017 129.766 50.6617 130.145 49.9511H131.897C131.668 50.7647 131.258 51.4135 130.669 51.8976C130.08 52.3816 129.321 52.6236 128.393 52.6236Z" fill="#757575"/>
<path d="M136.37 44.1889C137.388 44.1889 138.182 44.4515 138.751 44.9768C139.32 45.502 139.605 46.2384 139.605 47.1859V52.4692H138.152L137.957 51.4805H137.882C137.703 51.7791 137.413 52.0469 137.014 52.2838C136.624 52.5104 136.16 52.6236 135.621 52.6236C135.072 52.6236 134.588 52.5155 134.168 52.2992C133.759 52.083 133.439 51.7843 133.21 51.4032C132.99 51.0222 132.88 50.5896 132.88 50.1056C132.88 49.3641 133.145 48.7616 133.674 48.2981C134.203 47.8244 134.942 47.5875 135.891 47.5875H137.882V47.1395C137.882 46.6967 137.743 46.3568 137.463 46.1199C137.183 45.8728 136.804 45.7492 136.325 45.7492C135.965 45.7492 135.661 45.8316 135.411 45.9963C135.162 46.1508 134.992 46.3568 134.902 46.6143H133.15C133.32 45.8933 133.679 45.3115 134.228 44.8686C134.787 44.4155 135.501 44.1889 136.37 44.1889ZM135.935 51.1097C136.525 51.1097 136.994 50.9449 137.343 50.6154C137.703 50.2755 137.882 49.8378 137.882 49.3023V48.947H135.935C135.496 48.947 135.162 49.0448 134.932 49.2405C134.712 49.4362 134.603 49.6936 134.603 50.0129C134.603 50.3425 134.717 50.6102 134.947 50.8162C135.177 51.0119 135.506 51.1097 135.935 51.1097Z" fill="#757575"/>
<path d="M144.187 52.6236C143.269 52.6236 142.52 52.4022 141.941 51.9594C141.372 51.5165 141.017 50.8986 140.877 50.1056H142.719C142.789 50.394 142.954 50.6257 143.214 50.8008C143.483 50.9758 143.808 51.0634 144.187 51.0634C144.726 51.0634 145.121 50.981 145.37 50.8162C145.62 50.6411 145.745 50.4248 145.745 50.1674C145.745 49.879 145.605 49.6679 145.325 49.534C145.056 49.4001 144.636 49.2714 144.067 49.1478C143.468 49.0139 142.969 48.8697 142.57 48.7152C142.18 48.5608 141.846 48.3136 141.566 47.9737C141.287 47.6236 141.147 47.155 141.147 46.5679C141.147 46.1251 141.267 45.7234 141.506 45.363C141.746 45.0025 142.096 44.7193 142.555 44.5133C143.014 44.297 143.558 44.1889 144.187 44.1889C145.066 44.1889 145.785 44.3897 146.344 44.7914C146.913 45.193 147.267 45.7698 147.407 46.5216H145.565C145.495 46.295 145.345 46.1096 145.116 45.9654C144.896 45.8213 144.587 45.7492 144.187 45.7492C143.778 45.7492 143.463 45.8264 143.244 45.9809C143.024 46.1251 142.914 46.3208 142.914 46.5679C142.914 46.8666 143.049 47.0829 143.319 47.2168C143.598 47.3506 144.032 47.4897 144.621 47.6339C145.22 47.7677 145.71 47.9119 146.089 48.0664C146.478 48.2106 146.813 48.4526 147.092 48.7925C147.372 49.1323 147.512 49.5906 147.512 50.1674C147.512 50.9192 147.217 51.5165 146.628 51.9594C146.049 52.4022 145.235 52.6236 144.187 52.6236Z" fill="#757575"/>
<path d="M148.98 52.4692V41.6554H150.702V45.2548H150.777C151.047 44.8944 151.346 44.6266 151.676 44.4515C152.015 44.2764 152.41 44.1889 152.859 44.1889C153.418 44.1889 153.917 44.3228 154.357 44.5905C154.796 44.848 155.14 45.2239 155.39 45.7183C155.649 46.2126 155.779 46.7997 155.779 47.4794V52.4692H154.057V47.6648C154.057 47.0777 153.907 46.6194 153.608 46.2899C153.318 45.9603 152.924 45.7955 152.425 45.7955C151.925 45.7955 151.511 45.9757 151.182 46.3362C150.862 46.6864 150.702 47.1292 150.702 47.6648V52.4692H148.98Z" fill="#757575"/>
</svg>
